HIERARCHY
ROOT Hips
{
	OFFSET 0.000000 97.420761 0.000000
	CHANNELS 6 Xposition Yposition Zposition Xrotation Yrotation Zrotation
	JOINT RightUpLeg
	{
		OFFSET -8.571318 0.002251 -0.000250
		CHANNELS 6 Xposition Yposition Zposition Xrotation Yrotation Zrotation
		JOINT RightLeg
		{
			OFFSET 0.000000 -44.326080 -0.000105
			CHANNELS 6 Xposition Yposition Zposition Xrotation Yrotation Zrotation
			JOINT RightFoot
			{
				OFFSET 0.000000 -43.324329 -0.000176
				CHANNELS 6 Xposition Yposition Zposition Xrotation Yrotation Zrotation
				JOINT RightToeBase
				{
					OFFSET 0.000000 -7.938133 18.050686
					CHANNELS 6 Xposition Yposition Zposition Xrotation Yrotation Zrotation
					End Site
					{
						OFFSET 0.000000 0.000000 19.719055
					}
				}
			}
		}
	}
	JOINT LeftUpLeg
	{
		OFFSET 8.571318 -0.000084 0.000009
		CHANNELS 6 Xposition Yposition Zposition Xrotation Yrotation Zrotation
		JOINT LeftLeg
		{
			OFFSET 0.000000 -44.326080 -0.000105
			CHANNELS 6 Xposition Yposition Zposition Xrotation Yrotation Zrotation
			JOINT LeftFoot
			{
				OFFSET 0.000000 -43.324329 -0.000176
				CHANNELS 6 Xposition Yposition Zposition Xrotation Yrotation Zrotation
				JOINT LeftToeBase
				{
					OFFSET 0.000000 -7.938133 18.050686
					CHANNELS 6 Xposition Yposition Zposition Xrotation Yrotation Zrotation
					End Site
					{
						OFFSET 0.000000 0.000000 19.719055
					}
				}
			}
		}
	}
	JOINT Spine
	{
		OFFSET 0.000000 10.422829 -1.158092
		CHANNELS 6 Xposition Yposition Zposition Xrotation Yrotation Zrotation
		JOINT Spine1
		{
			OFFSET 0.000000 11.587624 0.000000
			CHANNELS 3 Xrotation Yrotation Zrotation
			JOINT Spine2
			{
				OFFSET 0.000000 10.579559 -0.000443
				CHANNELS 6 Xposition Yposition Zposition Xrotation Yrotation Zrotation
				JOINT Spine3
				{
					OFFSET 0.000000 10.567749 -0.000444
					CHANNELS 6 Xposition Yposition Zposition Xrotation Yrotation Zrotation
					JOINT LeftShoulder
					{
						OFFSET 3.218383 8.290512 0.000000
						CHANNELS 6 Xposition Yposition Zposition Xrotation Yrotation Zrotation
						JOINT LeftArm
						{
							OFFSET 15.038529 0.000000 0.000000
							CHANNELS 3 Xrotation Yrotation Zrotation
							JOINT LeftForeArm
							{
								OFFSET 32.129166 0.000000 0.000000
								CHANNELS 3 Xrotation Yrotation Zrotation
								JOINT LeftHand
								{
									OFFSET 26.275406 0.000000 0.000000
									CHANNELS 3 Xrotation Yrotation Zrotation
									End Site
									{
										OFFSET 26.275406 0.000000 0.000000
									}
								}
							}
						}
					}
					JOINT RightShoulder
					{
						OFFSET -3.218383 8.290512 0.000000
						CHANNELS 6 Xposition Yposition Zposition Xrotation Yrotation Zrotation
						JOINT RightArm
						{
							OFFSET -15.038529 0.000000 0.000000
							CHANNELS 3 Xrotation Yrotation Zrotation
							JOINT RightForeArm
							{
								OFFSET -32.129166 0.000000 0.000000
								CHANNELS 3 Xrotation Yrotation Zrotation
								JOINT RightHand
								{
									OFFSET -26.275406 0.000000 0.000000
									CHANNELS 3 Xrotation Yrotation Zrotation
									End Site
									{
										OFFSET -26.275406 0.000000 0.000000
									}
								}
							}
						}
					}
					JOINT Neck
					{
						OFFSET 0.000000 14.789474 0.000000
						CHANNELS 6 Xposition Yposition Zposition Xrotation Yrotation Zrotation
						JOINT Head
						{
							OFFSET 0.000000 9.838806 0.000953
							CHANNELS 6 Xposition Yposition Zposition Xrotation Yrotation Zrotation
							End Site
							{
								OFFSET 0.000000 9.838806 0.000000
							}
						}
					}
				}
			}
		}
	}
}
MOTION
Frames: 8
Frame Time: 0.016667
0.000000 97.420761 0.000000 -0.000000 0.000000 -0.000000 -8.571318 0.002251 -0.000250 -0.000000 0.000000 -0.000000 0.000000 -44.326080 -0.000105 -0.000000 0.000000 -0.000000 0.000000 -43.324329 -0.000176 -0.000000 0.000000 -0.000000 0.000000 -7.938133 18.050686 -0.000000 0.000000 -0.000000 8.571318 -0.000084 0.000009 -0.000000 0.000000 -0.000000 0.000000 -44.326080 -0.000105 -0.000000 0.000000 -0.000000 0.000000 -43.324329 -0.000176 -0.000000 0.000000 -0.000000 0.000000 -7.938133 18.050686 -0.000000 0.000000 -0.000000 0.000000 10.422829 -1.158092 -0.000000 0.000000 -0.000000 -0.000000 0.000000 -0.000000 0.000000 10.579559 -0.000443 -0.000000 0.000000 -0.000000 0.000000 10.567749 -0.000444 -0.000000 0.000000 -0.000000 3.218383 8.290512 0.000000 -0.000000 0.000000 -0.000000 -0.000000 0.000000 -0.000000 -0.000000 0.000000 -0.000000 -0.000000 0.000000 -0.000000 -3.218383 8.290512 0.000000 -0.000000 0.000000 -0.000000 -0.000000 0.000000 -0.000000 -0.000000 0.000000 -0.000000 -0.000000 0.000000 -0.000000 0.000000 14.789474 0.000000 -0.000000 0.000000 -0.000000 0.000000 9.838806 0.000953 -0.000000 0.000000 -0.000000 
3.518937 97.100639 14.845198 -5.815965 0.371569 -1.321444 -8.571319 0.002271 -0.000249 6.976160 5.729937 3.598121 -0.000000 -44.326084 -0.000103 6.138210 -0.707485 1.058393 0.000001 -43.324333 -0.000175 -11.590636 -8.395332 -2.684144 -0.000000 -7.938133 18.050686 -0.000001 -0.000000 0.000000 8.571318 -0.000067 0.000010 8.618424 -4.789597 4.624987 0.000001 -44.326084 -0.000103 5.600163 1.264891 1.734954 0.000001 -43.324326 -0.000175 -7.757785 18.332431 -3.923326 -0.000003 -7.938132 18.050684 0.000000 -0.000001 -0.000000 -0.000000 10.422848 -1.158090 5.903381 1.049727 1.153702 -3.085812 0.396671 0.568818 0.000000 10.579563 -0.000443 2.620504 0.396045 0.569254 0.000001 10.567749 -0.000442 7.688025 0.336245 0.396849 3.218382 8.290530 0.000000 1.103657 -6.566590 -9.324949 -13.900330 -9.616282 -79.460529 -0.419744 2.139663 1.061196 3.198046 1.022386 -0.516557 -3.218381 8.290531 -0.000001 -2.396420 1.747030 9.530351 -16.638211 17.696127 79.814982 6.295674 -2.562298 0.687068 -1.421625 -1.206225 1.670518 0.000000 14.789480 0.000000 10.564177 -0.958148 0.152912 0.000000 9.838827 0.000963 -15.709582 -1.797387 -0.127892 
3.605057 97.049271 15.110404 -5.817960 0.461307 -1.142989 -8.571316 0.002268 -0.000250 7.013407 5.773613 3.441242 0.000000 -44.326073 -0.000102 6.248987 -0.763512 1.117343 -0.000000 -43.324329 -0.000176 -11.856328 -8.573356 -2.769449 0.000000 -7.938132 18.050684 -0.000000 0.000000 -0.000000 8.571317 -0.000080 0.000009 8.701195 -4.973772 4.311860 0.000000 -44.326080 -0.000103 5.639995 1.405729 2.346981 0.000001 -43.324326 -0.000176 -7.704673 18.608396 -4.382638 0.000001 -7.938133 18.050688 -0.000000 0.000000 0.000000 0.000000 10.422832 -1.158092 5.962864 1.019309 1.092706 -3.173807 0.386067 0.540686 0.000000 10.579557 -0.000445 2.646624 0.386011 0.540727 0.000000 10.567747 -0.000444 7.821933 0.327063 0.375940 3.218382 8.290493 -0.000000 1.125551 -6.667975 -9.423277 -14.266622 -9.613439 -81.014615 -0.453487 2.233826 1.136323 3.251361 1.018953 -0.530121 -3.218384 8.290494 0.000000 -2.409358 1.821455 9.663109 -17.235170 17.716367 81.417685 6.452631 -2.639685 0.723836 -1.455239 -1.232863 1.699281 -0.000001 14.789453 0.000000 10.796156 -0.947478 0.149690 0.000000 9.838789 0.000963 -15.983799 -1.775963 -0.137049 
3.613201 97.010567 15.081549 -5.706020 0.547611 -0.952077 -8.571318 0.002255 -0.000251 6.913965 5.697156 3.239428 -0.000000 -44.326084 -0.000105 6.243579 -0.805899 1.152043 -0.000000 -43.324333 -0.000175 -11.884701 -8.592823 -2.785748 -0.000000 -7.938133 18.050686 -0.000001 -0.000000 -0.000000 8.571318 -0.000073 0.000009 8.607322 -5.064804 3.919064 -0.000001 -44.326077 -0.000106 5.556703 1.512459 2.893195 -0.000002 -43.324329 -0.000174 -7.505052 18.514654 -4.761972 0.000001 -7.938132 18.050686 -0.000000 0.000001 -0.000000 0.000000 10.422834 -1.158093 5.904846 0.965669 1.016371 -3.199878 0.366979 0.503824 -0.000000 10.579565 -0.000445 2.620553 0.366927 0.503862 0.000000 10.567737 -0.000443 7.802355 0.310184 0.349772 3.218383 8.290535 0.000001 1.126460 -6.636664 -9.335228 -14.278570 -9.629125 -81.083361 -0.491276 2.286449 1.191339 3.239925 0.981697 -0.536022 -3.218382 8.290533 0.000003 -2.369013 1.867459 9.604137 -17.326761 17.680353 81.461255 6.494901 -2.671792 0.744751 -1.459139 -1.237509 1.697804 -0.000000 14.789495 0.000004 10.815102 -0.919330 0.143058 -0.000000 9.838828 0.000956 -15.948352 -1.722286 -0.136676 
3.606984 96.989929 15.062913 -5.617800 0.628018 -0.817036 -8.571318 0.002241 -0.000251 6.832560 5.629964 3.106764 -0.000000 -44.326080 -0.000104 6.250195 -0.839862 1.176599 -0.000000 -43.324329 -0.000176 -11.908357 -8.612684 -2.803220 -0.000001 -7.938133 18.050682 -0.000000 0.000000 -0.000000 8.571318 -0.000089 0.000008 8.529352 -5.131151 3.626338 0.000001 -44.326077 -0.000105 5.468901 1.588538 3.289295 -0.000000 -43.324322 -0.000175 -7.340292 18.438577 -5.032644 -0.000001 -7.938132 18.050688 -0.000000 -0.000001 0.000000 -0.000000 10.422820 -1.158093 5.857758 0.919526 0.964082 -3.221007 0.349766 0.478027 -0.000000 10.579550 -0.000442 2.599425 0.349717 0.478063 0.000000 10.567755 -0.000444 7.786485 0.295495 0.331735 3.218380 8.290525 -0.000002 1.109654 -6.610462 -9.260943 -14.261957 -9.618144 -81.144765 -0.542966 2.330050 1.239762 3.228817 0.918094 -0.546918 -3.218383 8.290533 0.000000 -2.330376 1.909590 9.555317 -17.393353 17.642502 81.482080 6.549870 -2.704112 0.765787 -1.459408 -1.245403 1.701282 -0.000001 14.789471 -0.000001 10.827622 -0.897759 0.140721 -0.000001 9.838789 0.000959 -15.924893 -1.682329 -0.131466 
3.592234 96.978836 15.049484 -5.540519 0.706923 -0.710984 -8.571319 0.002254 -0.000250 6.758552 5.567057 3.010804 -0.000000 -44.326073 -0.000103 6.264116 -0.869788 1.196034 -0.000000 -43.324333 -0.000176 -11.929803 -8.633871 -2.821800 0.000000 -7.938133 18.050688 0.000000 0.000000 0.000000 8.571318 -0.000076 0.000009 8.458880 -5.185376 3.385415 -0.000003 -44.326077 -0.000104 5.376628 1.648863 3.608806 -0.000001 -43.324329 -0.000176 -7.191919 18.370687 -5.247926 0.000003 -7.938133 18.050690 -0.000000 0.000001 0.000000 -0.000000 10.422844 -1.158092 5.815613 0.876419 0.924665 -3.239899 0.333128 0.458096 -0.000000 10.579550 -0.000443 2.580534 0.333080 0.458130 0.000000 10.567745 -0.000442 7.772294 0.281653 0.318039 3.218381 8.290531 -0.000000 1.082582 -6.586685 -9.193108 -14.228047 -9.589646 -81.203142 -0.605078 2.370683 1.285249 3.217837 0.843217 -0.560855 -3.218383 8.290509 -0.000002 -2.292265 1.950530 9.510523 -17.446755 17.602034 81.490645 6.613568 -2.739202 0.785967 -1.457653 -1.255570 1.707870 -0.000001 14.789481 -0.000003 10.836560 -0.879759 0.140397 -0.000000 9.838804 0.000954 -15.908091 -1.649681 -0.124204 
3.573529 96.969566 15.036820 -5.463908 0.785843 -0.615549 -8.571319 0.002244 -0.000246 6.681660 5.508350 2.928604 0.000000 -44.326073 -0.000104 6.282122 -0.898403 1.214233 -0.000000 -43.324329 -0.000176 -11.950275 -8.658849 -2.841023 0.000000 -7.938133 18.050686 -0.000000 0.000000 0.000000 8.571319 -0.000094 0.000014 8.391400 -5.237989 3.168749 -0.000002 -44.326088 -0.000103 5.282613 1.704764 3.903002 -0.000002 -43.324329 -0.000175 -7.050876 18.303696 -5.446867 0.000002 -7.938131 18.050686 -0.000000 0.000001 0.000000 0.000000 10.422823 -1.158089 5.773894 0.833350 0.891324 -3.258580 0.316148 0.440853 -0.000000 10.579555 -0.000445 2.561853 0.316103 0.440886 -0.000000 10.567769 -0.000444 7.758264 0.267748 0.306377 3.218381 8.290504 -0.000003 1.053098 -6.564121 -9.128823 -14.185233 -9.544525 -81.259485 -0.677462 2.416515 1.328303 3.208086 0.790589 -0.575140 -3.218383 8.290491 -0.000001 -2.256473 1.991482 9.463739 -17.493475 17.556844 81.496096 6.681571 -2.785080 0.798712 -1.455462 -1.267772 1.716534 -0.000001 14.789479 -0.000001 10.843317 -0.864506 0.138810 0.000000 9.838802 0.000960 -15.895389 -1.621451 -0.120435 
3.554883 96.961281 15.025261 -5.394584 0.853441 -0.540791 -8.571318 0.002249 -0.000247 6.607236 5.464011 2.866986 0.000000 -44.326073 -0.000104 6.302268 -0.922904 1.229857 -0.000000 -43.324326 -0.000175 -11.967390 -8.685728 -2.857718 -0.000000 -7.938130 18.050682 -0.000001 -0.000000 -0.000000 8.571318 -0.000084 0.000013 8.335361 -5.283423 3.002647 -0.000000 -44.326065 -0.000105 5.200374 1.750885 4.144177 -0.000005 -43.324333 -0.000176 -6.935399 18.244931 -5.612133 -0.000000 -7.938132 18.050688 0.000000 -0.000002 0.000000 -0.000000 10.422835 -1.158089 5.736141 0.794946 0.868307 -3.275463 0.300617 0.428442 -0.000000 10.579549 -0.000447 2.544968 0.300573 0.428473 -0.000001 10.567729 -0.000443 7.745583 0.255271 0.298219 3.218382 8.290504 -0.000002 1.024492 -6.546161 -9.076288 -14.138524 -9.477600 -81.309591 -0.770192 2.465132 1.366812 3.198844 0.789614 -0.585377 -3.218383 8.290516 -0.000002 -2.229570 2.027176 9.417197 -17.527017 17.514924 81.503001 6.744741 -2.841813 0.797017 -1.452863 -1.281842 1.727543 0.000000 14.789475 -0.000002 10.846930 -0.854448 0.134806 -0.000001 9.838778 0.000965 -15.888637 -1.601565 -0.123307 
